<svg id="visual" viewBox="0 0 1920 1080" width="1920" height="1080" xmlns="http://www.w3.org/2000/svg" xmlns:xlink="http://www.w3.org/1999/xlink" version="1.1"><rect x="0" y="0" width="1920" height="1080" fill="#ffe1e1"></rect><path d="M0 731L45.7 719.7C91.3 708.3 182.7 685.7 274.2 689.3C365.7 693 457.3 723 548.8 741.3C640.3 759.7 731.7 766.3 823 757.2C914.3 748 1005.7 723 1097 723.7C1188.3 724.3 1279.7 750.7 1371.2 741.3C1462.7 732 1554.3 687 1645.8 667.2C1737.3 647.3 1828.7 652.7 1874.3 655.3L1920 658L1920 1081L1874.3 1081C1828.7 1081 1737.3 1081 1645.8 1081C1554.3 1081 1462.7 1081 1371.2 1081C1279.7 1081 1188.3 1081 1097 1081C1005.7 1081 914.3 1081 823 1081C731.7 1081 640.3 1081 548.8 1081C457.3 1081 365.7 1081 274.2 1081C182.7 1081 91.3 1081 45.7 1081L0 1081Z" fill="#fa7268"></path><path d="M0 718L45.7 741C91.3 764 182.7 810 274.2 814.8C365.7 819.7 457.3 783.3 548.8 759C640.3 734.7 731.7 722.3 823 721.3C914.3 720.3 1005.7 730.7 1097 754.5C1188.3 778.3 1279.7 815.7 1371.2 817.3C1462.7 819 1554.3 785 1645.8 787C1737.3 789 1828.7 827 1874.3 846L1920 865L1920 1081L1874.3 1081C1828.7 1081 1737.3 1081 1645.8 1081C1554.3 1081 1462.7 1081 1371.2 1081C1279.7 1081 1188.3 1081 1097 1081C1005.7 1081 914.3 1081 823 1081C731.7 1081 640.3 1081 548.8 1081C457.3 1081 365.7 1081 274.2 1081C182.7 1081 91.3 1081 45.7 1081L0 1081Z" fill="#ef5f67"></path><path d="M0 849L45.7 850.8C91.3 852.7 182.7 856.3 274.2 855C365.7 853.7 457.3 847.3 548.8 851.5C640.3 855.7 731.7 870.3 823 864C914.3 857.7 1005.7 830.3 1097 822.8C1188.3 815.3 1279.7 827.7 1371.2 826.2C1462.7 824.7 1554.3 809.3 1645.8 822.5C1737.3 835.7 1828.7 877.3 1874.3 898.2L1920 919L1920 1081L1874.3 1081C1828.7 1081 1737.3 1081 1645.8 1081C1554.3 1081 1462.7 1081 1371.2 1081C1279.7 1081 1188.3 1081 1097 1081C1005.7 1081 914.3 1081 823 1081C731.7 1081 640.3 1081 548.8 1081C457.3 1081 365.7 1081 274.2 1081C182.7 1081 91.3 1081 45.7 1081L0 1081Z" fill="#e34c67"></path><path d="M0 877L45.7 893C91.3 909 182.7 941 274.2 950.3C365.7 959.7 457.3 946.3 548.8 944.7C640.3 943 731.7 953 823 945.2C914.3 937.3 1005.7 911.7 1097 906.3C1188.3 901 1279.7 916 1371.2 931.2C1462.7 946.3 1554.3 961.7 1645.8 968.7C1737.3 975.7 1828.7 974.3 1874.3 973.7L1920 973L1920 1081L1874.3 1081C1828.7 1081 1737.3 1081 1645.8 1081C1554.3 1081 1462.7 1081 1371.2 1081C1279.7 1081 1188.3 1081 1097 1081C1005.7 1081 914.3 1081 823 1081C731.7 1081 640.3 1081 548.8 1081C457.3 1081 365.7 1081 274.2 1081C182.7 1081 91.3 1081 45.7 1081L0 1081Z" fill="#d53867"></path><path d="M0 955L45.7 965.5C91.3 976 182.7 997 274.2 1008.8C365.7 1020.7 457.3 1023.3 548.8 1020.7C640.3 1018 731.7 1010 823 997.8C914.3 985.7 1005.7 969.3 1097 965C1188.3 960.7 1279.7 968.3 1371.2 969.7C1462.7 971 1554.3 966 1645.8 970.7C1737.3 975.3 1828.7 989.7 1874.3 996.8L1920 1004L1920 1081L1874.3 1081C1828.7 1081 1737.3 1081 1645.8 1081C1554.3 1081 1462.7 1081 1371.2 1081C1279.7 1081 1188.3 1081 1097 1081C1005.7 1081 914.3 1081 823 1081C731.7 1081 640.3 1081 548.8 1081C457.3 1081 365.7 1081 274.2 1081C182.7 1081 91.3 1081 45.7 1081L0 1081Z" fill="#c62368"></path></svg>